<svg xmlns="http://www.w3.org/2000/svg" width="179" height="55" viewBox="0 0 179 55">
  <defs>
    <linearGradient id="botton-click-for-prototype-a" x1="2.155%" x2="54.043%" y1="45.685%" y2="50%">
      <stop offset="0%" stop-color="#7DD3F3"/>
      <stop offset="100%" stop-color="#47A8E2"/>
    </linearGradient>
    <linearGradient id="botton-click-for-prototype-b" x1="50%" x2="100%" y1="50%" y2="50.391%">
      <stop offset="0%" stop-color="#FFF" stop-opacity=".939"/>
      <stop offset="0%" stop-color="#FDFEFF" stop-opacity=".941"/>
      <stop offset="100%" stop-color="#C2E4F8"/>
    </linearGradient>
  </defs>
  <g fill="none" fill-rule="evenodd">
    <rect width="179" height="55" fill="url(#botton-click-for-prototype-a)" rx="10"/>
    <path fill="url(#botton-click-for-prototype-b)" fill-rule="nonzero" d="M30.6572266,33.1933594 C29.8134723,33.1933594 29.010746,33.0483413 28.2490234,32.7583008 C27.4873009,32.4682603 26.8076202,32.0537136 26.2099609,31.5146484 C25.6123017,30.9755832 25.1362322,30.2827191 24.7817383,29.4360352 C24.4272443,28.5893512 24.25,27.6474661 24.25,26.6103516 C24.25,25.7431597 24.3686512,24.9418982 24.605957,24.206543 C24.8432629,23.4711877 25.1640605,22.8471705 25.5683594,22.3344727 C25.9726583,21.8217748 26.4414036,21.3837909 26.9746094,21.0205078 C27.5078152,20.6572247 28.0703095,20.3906258 28.6621094,20.2207031 C29.2539092,20.0507804 29.8603485,19.9658203 30.4814453,19.9658203 C32.1572349,19.9658203 33.5810488,20.4257767 34.7529297,21.3457031 L33.8828125,22.9013672 C32.9101514,22.2275357 31.8378965,21.890625 30.6660156,21.890625 C30.121091,21.890625 29.6040064,21.9990224 29.1147461,22.2158203 C28.6254858,22.4326183 28.1933612,22.7373027 27.8183594,23.1298828 C27.4433575,23.5224629 27.1445324,24.0175751 26.921875,24.6152344 C26.6992176,25.2128936 26.5878906,25.8691371 26.5878906,26.5839844 C26.5878906,27.9961008 26.9863241,29.1298785 27.7832031,29.9853516 C28.5800821,30.8408246 29.5878845,31.2685547 30.8066406,31.2685547 C32.0898502,31.2685547 33.2675728,30.8378949 34.3398438,29.9765625 L35.0869141,31.7431641 C33.8447204,32.7099658 32.3681726,33.1933594 30.6572266,33.1933594 Z M37.1875,33 L37.1875,20.1943359 L39.3408203,20.1943359 L39.3408203,33 L37.1875,33 Z M41.8105469,22.1191406 L41.8105469,20.203125 L43.9199219,20.203125 L43.9199219,22.1191406 L41.8105469,22.1191406 Z M41.8193359,33 L41.8193359,23.9824219 L43.9199219,23.9824219 L43.9199219,33 L41.8193359,33 Z M50.828125,33.2021484 C50.0956995,33.2021484 49.4262726,33.0732435 48.8198242,32.8154297 C48.2133759,32.5576159 47.7167988,32.2089866 47.3300781,31.7695312 C46.9433574,31.3300759 46.6445323,30.8276395 46.4335938,30.262207 C46.2226552,29.6967745 46.1171875,29.1035187 46.1171875,28.4824219 C46.1171875,27.5917924 46.3002911,26.7905309 46.6665039,26.0786133 C47.0327167,25.3666957 47.5747034,24.8012716 48.2924805,24.3823242 C49.0102575,23.9633768 49.8466749,23.7539062 50.8017578,23.7539062 C52.2197337,23.7539062 53.3095665,24.1581991 54.0712891,24.9667969 L53.2890625,26.3730469 C52.6386686,25.7988253 51.8857465,25.5117188 51.0302734,25.5117188 C50.1748004,25.5117188 49.518557,25.7812473 49.0615234,26.3203125 C48.6044899,26.8593777 48.3759766,27.5830033 48.3759766,28.4912109 C48.3759766,29.375981 48.6191382,30.0893528 49.1054688,30.6313477 C49.5917993,31.1733426 50.2568317,31.4443359 51.1005859,31.4443359 C51.217774,31.4443359 51.3349604,31.4384766 51.4521484,31.4267578 C51.5693365,31.415039 51.6748042,31.4003907 51.7685547,31.3828125 C51.8623052,31.3652343 51.9604487,31.3403322 52.0629883,31.3081055 L52.3222656,31.2202148 L52.3222656,31.2202148 C52.3925785,31.1938475 52.4716792,31.1572268 52.5595703,31.1103516 L52.7661133,31.0004883 L52.7661133,31.0004883 L52.8833007,30.9301759 L52.8833007,30.9301759 L53.1420898,30.753418 L53.1420898,30.753418 L53.359375,30.5917969 L53.359375,30.5917969 L54.0185547,32.1914062 C53.5146459,32.5429705 53.0107447,32.7993156 52.5068359,32.9604492 C52.0029272,33.1215828 51.4433625,33.2021484 50.828125,33.2021484 Z M55.8115234,33 L55.8115234,20.1943359 L57.9912109,20.1943359 L57.9912109,27.6650391 L61.2519531,23.9824219 L64.2578125,23.9824219 L59.9599609,28.3417969 L64.5390625,33 L61.65625,33 L57.9912109,29.0976562 L57.9912109,33 L55.8115234,33 Z M75.0332031,31.4443359 C75.437502,31.4443359 75.7905258,31.3637703 76.0922852,31.2026367 C76.3940445,31.0415031 76.6313468,30.8203139 76.8041992,30.5390625 C76.9770516,30.2578111 77.1059566,29.9458025 77.190918,29.6030273 C77.2758793,29.2602522 77.3183594,28.8867208 77.3183594,28.4824219 C77.3183594,27.9257785 77.2421883,27.4306662 77.0898438,26.9970703 C76.9374992,26.5634744 76.6840838,26.2089858 76.3295898,25.9335938 C75.9750959,25.6582017 75.5400416,25.5205078 75.0244141,25.5205078 C74.5146459,25.5205078 74.0839861,25.6567369 73.7324219,25.9291992 C73.3808576,26.2016615 73.128907,26.5502908 72.9765625,26.9750977 C72.824218,27.3999045 72.7480469,27.8876926 72.7480469,28.4384766 C72.7480469,28.8486349 72.7905269,29.2280256 72.8754883,29.5766602 C72.9604496,29.9252947 73.0908194,30.2416978 73.2666016,30.5258789 C73.4423837,30.81006 73.6811508,31.0341789 73.9829102,31.1982422 C74.2846695,31.3623055 74.6347636,31.4443359 75.0332031,31.4443359 Z M72.8710938,36.4716797 L70.7265625,36.4716797 L70.7265625,27.0146484 C70.7265625,26.4931615 70.670899,25.4824294 70.5595703,23.9824219 L72.8710938,23.9824219 L72.8710938,25.2744141 C72.9414066,24.9462874 73.2358373,24.6108416 73.7543945,24.2680664 C74.2729518,23.9252913 74.9072228,23.7539062 75.6572266,23.7539062 C76.4482461,23.7539062 77.1469696,23.9721658 77.753418,24.4086914 C78.3598663,24.845217 78.816893,25.4121059 79.1245117,26.109375 C79.4321304,26.8066441 79.5859375,27.5654256 79.5859375,28.3857422 C79.5859375,29.0009796 79.4951181,29.5942354 79.3134766,30.1655273 C79.131835,30.7368193 78.8740251,31.2495094 78.5400391,31.7036133 C78.206053,32.1577171 77.7783229,32.5209947 77.2568359,32.793457 C76.735349,33.0659193 76.1611359,33.2021484 75.5341797,33.2021484 C74.8251918,33.2021484 74.2216822,33.0351579 73.7236328,32.7011719 C73.2255834,32.3671858 72.9414066,32.0537124 72.8710938,31.7607422 L72.8710938,36.4716797 Z M81.9326172,33 L81.9326172,26.2675781 C81.9326172,25.9160139 81.9179689,25.5498066 81.8886719,25.1689453 C81.8652343,24.8642563 81.8417969,24.6158204 81.8183594,24.423633 L81.7568359,23.9824219 L84.0771484,23.9824219 L84.0771484,25.1689453 C84.4345721,24.700193 84.7905256,24.3471692 85.1450195,24.1098633 C85.4995135,23.8725574 85.8994118,23.7539062 86.3447266,23.7539062 C86.6083998,23.7539062 86.9072249,23.7978511 87.2412109,23.8857422 L87.2412109,25.7929688 C86.8486308,25.6640619 86.4853532,25.5996094 86.1513672,25.5996094 C85.5478485,25.5996094 85.055666,25.7958965 84.6748047,26.1884766 C84.2939434,26.5810567 84.1035156,27.1494103 84.1035156,27.8935547 L84.1035156,33 L81.9326172,33 Z M93.0595703,33.2021484 C92.2744101,33.2021484 91.5742218,33.0747083 90.9589844,32.8198242 C90.3437469,32.5649401 89.8471699,32.2192405 89.4692383,31.7827148 C89.0913067,31.3461892 88.8042002,30.8481473 88.6079102,30.2885742 C88.4116201,29.7290011 88.3134766,29.129886 88.3134766,28.4912109 C88.3134766,27.8408171 88.4130849,27.232913 88.6123047,26.6674805 C88.8115244,26.102048 89.1030254,25.6010764 89.4868164,25.1645508 C89.8706074,24.7280252 90.3686493,24.3837903 90.980957,24.1318359 C91.5932648,23.8798816 92.2831993,23.7539062 93.0507812,23.7539062 C93.8359414,23.7539062 94.5332001,23.8784167 95.1425781,24.1274414 C95.7519562,24.3764661 96.2412091,24.7192361 96.6103516,25.1557617 C96.979494,25.5922873 97.2563467,26.0932589 97.440918,26.6586914 C97.6254892,27.2241239 97.7177734,27.840817 97.7177734,28.5087891 C97.7177734,29.1357453 97.6210947,29.7260715 97.4277344,30.2797852 C97.234374,30.8334989 96.951662,31.3300759 96.5795898,31.7695312 C96.2075177,32.2089866 95.7182648,32.5576159 95.1118164,32.8154297 C94.5053681,33.0732435 93.8212929,33.2021484 93.0595703,33.2021484 Z M93.015625,31.4443359 C93.4433615,31.4443359 93.8183578,31.3637703 94.140625,31.2026367 C94.4628922,31.0415031 94.7163077,30.8188491 94.9008789,30.534668 C95.0854501,30.2504869 95.2231441,29.9355486 95.3139648,29.5898438 C95.4047856,29.2441389 95.4501953,28.8691426 95.4501953,28.4648438 C95.4501953,27.6035113 95.2465841,26.8974637 94.8393555,26.3466797 C94.4321269,25.7958957 93.8271525,25.5205078 93.0244141,25.5205078 C92.4794895,25.5205078 92.0195331,25.6567369 91.6445312,25.9291992 C91.2695294,26.2016615 90.998536,26.5546853 90.831543,26.9882812 C90.6645499,27.4218772 90.5810547,27.9140597 90.5810547,28.4648438 C90.5810547,29.0097683 90.6586906,29.4990213 90.8139648,29.9326172 C90.9692391,30.3662131 91.235838,30.7265611 91.6137695,31.0136719 C91.9917011,31.3007827 92.4589816,31.4443359 93.015625,31.4443359 Z M105.15332,32.9912109 L104.274414,32.9912109 C103.92285,32.9912109 103.618165,32.982422 103.360352,32.9648438 C103.102538,32.9472655 102.837404,32.90918 102.564941,32.8505859 C102.292479,32.7919919 102.061036,32.714356 101.870605,32.6176758 C101.680175,32.5209956 101.497071,32.3906258 101.321289,32.2265625 C101.145507,32.0624992 101.004883,31.8647473 100.899414,31.6333008 C100.793945,31.4018543 100.71045,31.1250016 100.648926,30.8027344 C100.587402,30.4804671 100.556641,30.1113302 100.556641,29.6953125 L100.556641,25.4414062 L98.6757812,25.4414062 L98.6757812,23.9824219 L100.644531,23.9824219 L100.644531,21.8730469 L102.727539,21.2314453 L102.727539,23.9824219 L105.083008,23.9824219 L105.083008,25.4414062 L102.727539,25.4414062 L102.727539,29.8271484 C102.727539,30.1083998 102.749511,30.3354484 102.793457,30.5083008 C102.837403,30.6811532 102.90332,30.8247065 102.991211,30.9389648 C103.079102,31.0532232 103.22705,31.1367185 103.435059,31.1894531 C103.643067,31.2421878 103.870116,31.2773437 104.116211,31.2949219 L104.395508,31.3095704 C104.603841,31.3173829 104.856444,31.3212891 105.15332,31.3212891 L105.15332,32.9912109 Z M111.428711,33.2021484 C110.643551,33.2021484 109.943362,33.0747083 109.328125,32.8198242 C108.712888,32.5649401 108.21631,32.2192405 107.838379,31.7827148 C107.460447,31.3461892 107.173341,30.8481473 106.977051,30.2885742 C106.780761,29.7290011 106.682617,29.129886 106.682617,28.4912109 C106.682617,27.8408171 106.782226,27.232913 106.981445,26.6674805 C107.180665,26.102048 107.472166,25.6010764 107.855957,25.1645508 C108.239748,24.7280252 108.73779,24.3837903 109.350098,24.1318359 C109.962405,23.8798816 110.65234,23.7539062 111.419922,23.7539062 C112.205082,23.7539062 112.902341,23.8784167 113.511719,24.1274414 C114.121097,24.3764661 114.61035,24.7192361 114.979492,25.1557617 C115.348635,25.5922873 115.625487,26.0932589 115.810059,26.6586914 C115.99463,27.2241239 116.086914,27.840817 116.086914,28.5087891 C116.086914,29.1357453 115.990235,29.7260715 115.796875,30.2797852 C115.603515,30.8334989 115.320803,31.3300759 114.94873,31.7695312 C114.576658,32.2089866 114.087405,32.5576159 113.480957,32.8154297 C112.874509,33.0732435 112.190433,33.2021484 111.428711,33.2021484 Z M111.384766,31.4443359 C111.812502,31.4443359 112.187498,31.3637703 112.509766,31.2026367 C112.832033,31.0415031 113.085448,30.8188491 113.27002,30.534668 C113.454591,30.2504869 113.592285,29.9355486 113.683105,29.5898438 C113.773926,29.2441389 113.819336,28.8691426 113.819336,28.4648438 C113.819336,27.6035113 113.615725,26.8974637 113.208496,26.3466797 C112.801267,25.7958957 112.196293,25.5205078 111.393555,25.5205078 C110.84863,25.5205078 110.388674,25.6567369 110.013672,25.9291992 C109.63867,26.2016615 109.367677,26.5546853 109.200684,26.9882812 C109.033691,27.4218772 108.950195,27.9140597 108.950195,28.4648438 C108.950195,29.0097683 109.027831,29.4990213 109.183105,29.9326172 C109.33838,30.3662131 109.604979,30.7265611 109.98291,31.0136719 C110.360842,31.3007827 110.828122,31.4443359 111.384766,31.4443359 Z M123.522461,32.9912109 L122.643555,32.9912109 C122.29199,32.9912109 121.987306,32.982422 121.729492,32.9648438 C121.471678,32.9472655 121.206544,32.90918 120.934082,32.8505859 C120.66162,32.7919919 120.430177,32.714356 120.239746,32.6176758 C120.049315,32.5209956 119.866212,32.3906258 119.69043,32.2265625 C119.514648,32.0624992 119.374024,31.8647473 119.268555,31.6333008 C119.163085,31.4018543 119.07959,31.1250016 119.018066,30.8027344 C118.956543,30.4804671 118.925781,30.1113302 118.925781,29.6953125 L118.925781,25.4414062 L117.044922,25.4414062 L117.044922,23.9824219 L119.013672,23.9824219 L119.013672,21.8730469 L121.09668,21.2314453 L121.09668,23.9824219 L123.452148,23.9824219 L123.452148,25.4414062 L121.09668,25.4414062 L121.09668,29.8271484 C121.09668,30.1083998 121.118652,30.3354484 121.162598,30.5083008 C121.206543,30.6811532 121.27246,30.8247065 121.360352,30.9389648 C121.448243,31.0532232 121.59619,31.1367185 121.804199,31.1894531 C122.012208,31.2421878 122.239257,31.2773437 122.485352,31.2949219 L122.764648,31.3095704 C122.972981,31.3173829 123.225584,31.3212891 123.522461,31.3212891 L123.522461,32.9912109 Z M126.334961,36.9111328 L125.420898,35.4345703 C126.235356,35.1181625 126.846189,34.7915056 127.253418,34.4545898 C127.660647,34.1176741 127.93457,33.7119164 128.075195,33.2373047 L128.198242,32.7978516 L124.366211,23.9824219 L126.633789,23.9824219 L129.244141,30.4511719 L131.494141,23.9824219 L133.717773,23.9824219 L130.061523,33.4921875 C129.809569,34.1132844 129.478518,34.6625953 129.068359,35.1401367 C128.658201,35.6176782 128.230471,35.9912096 127.785156,36.2607422 C127.339842,36.5302748 126.856448,36.7470695 126.334961,36.9111328 Z M139.606445,31.4443359 C140.010744,31.4443359 140.363768,31.3637703 140.665527,31.2026367 C140.967287,31.0415031 141.204589,30.8203139 141.377441,30.5390625 C141.550294,30.2578111 141.679199,29.9458025 141.76416,29.6030273 C141.849122,29.2602522 141.891602,28.8867208 141.891602,28.4824219 C141.891602,27.9257785 141.81543,27.4306662 141.663086,26.9970703 C141.510741,26.5634744 141.257326,26.2089858 140.902832,25.9335938 C140.548338,25.6582017 140.113284,25.5205078 139.597656,25.5205078 C139.087888,25.5205078 138.657228,25.6567369 138.305664,25.9291992 C137.9541,26.2016615 137.702149,26.5502908 137.549805,26.9750977 C137.39746,27.3999045 137.321289,27.8876926 137.321289,28.4384766 C137.321289,28.8486349 137.363769,29.2280256 137.44873,29.5766602 C137.533692,29.9252947 137.664062,30.2416978 137.839844,30.5258789 C138.015626,30.81006 138.254393,31.0341789 138.556152,31.1982422 C138.857912,31.3623055 139.208006,31.4443359 139.606445,31.4443359 Z M137.444336,36.4716797 L135.299805,36.4716797 L135.299805,27.0146484 C135.299805,26.4931615 135.244141,25.4824294 135.132812,23.9824219 L137.444336,23.9824219 L137.444336,25.2744141 C137.514649,24.9462874 137.809079,24.6108416 138.327637,24.2680664 C138.846194,23.9252913 139.480465,23.7539062 140.230469,23.7539062 C141.021488,23.7539062 141.720212,23.9721658 142.32666,24.4086914 C142.933109,24.845217 143.390135,25.4121059 143.697754,26.109375 C144.005373,26.8066441 144.15918,27.5654256 144.15918,28.3857422 C144.15918,29.0009796 144.06836,29.5942354 143.886719,30.1655273 C143.705077,30.7368193 143.447267,31.2495094 143.113281,31.7036133 C142.779295,32.1577171 142.351565,32.5209947 141.830078,32.793457 C141.308591,33.0659193 140.734378,33.2021484 140.107422,33.2021484 C139.398434,33.2021484 138.794924,33.0351579 138.296875,32.7011719 C137.798826,32.3671858 137.514649,32.0537124 137.444336,31.7607422 L137.444336,36.4716797 Z M148.360352,27.4101562 L152.842773,27.4101562 C152.737304,26.7714812 152.500002,26.2822283 152.130859,25.9423828 C151.761717,25.6025374 151.31055,25.4326172 150.777344,25.4326172 C150.150387,25.4326172 149.625979,25.6083967 149.204102,25.9599609 C148.782224,26.3115252 148.500977,26.7949188 148.360352,27.4101562 Z M150.935547,33.2021484 C149.417961,33.2021484 148.221196,32.768559 147.345215,31.9013672 C146.469234,31.0341754 146.03125,29.9003976 146.03125,28.5 C146.03125,27.8671843 146.136718,27.2666044 146.347656,26.6982422 C146.558595,26.12988 146.855955,25.6259788 147.239746,25.1865234 C147.623537,24.7470681 148.10986,24.3984388 148.69873,24.140625 C149.287601,23.8828112 149.93945,23.7539062 150.654297,23.7539062 C151.369144,23.7539062 151.993161,23.8769519 152.526367,24.1230469 C153.059573,24.3691419 153.481444,24.7133767 153.791992,25.1557617 C154.102541,25.5981467 154.332519,26.0947238 154.481934,26.6455078 C154.631348,27.1962918 154.706055,27.8056607 154.706055,28.4736328 C154.706055,28.6435555 154.691406,28.7724605 154.662109,28.8603516 L148.333984,28.8603516 C148.369141,29.7392622 148.637205,30.3896463 149.138184,30.8115234 C149.639163,31.2334005 150.30566,31.4443359 151.137695,31.4443359 C152.110356,31.4443359 153.059566,31.1220735 153.985352,30.4775391 L154.574219,32.0595703 C154.005857,32.4521504 153.433108,32.7407217 152.855957,32.925293 C152.278806,33.1098642 151.638675,33.2021484 150.935547,33.2021484 Z"/>
  </g>
</svg>
